<svg xmlns="http://www.w3.org/2000/svg" xmlns:xlink="http://www.w3.org/1999/xlink" version="1.1" x="0px" y="0px" viewBox="0 0 1408 128" enable-background="new 0 0 1408 128" xml:space="preserve"><g display="none"><rect x="-13" y="-3" display="inline" fill-rule="evenodd" clip-rule="evenodd" fill="#808080" width="1433" height="142"/></g><g><path fill-rule="evenodd" clip-rule="evenodd" fill="#FFFFFF" d="M63.1 88.1h5.1c0 0 1.5-0.2 2.3-1 c0.7-0.8 0.7-2.2 0.7-2.2S71.1 78 74.3 77c3.1-1 7.1 6.6 11.4 9.5c3.2 2.2 5.7 1.7 5.7 1.7l11.4-0.2c0 0 5.9-0.4 3.1-5 c-0.2-0.4-1.6-3.5-8.4-9.8c-7.1-6.6-6.2-5.5 2.4-17c5.2-7 7.3-11.2 6.7-13c-0.6-1.7-4.5-1.3-4.5-1.3L89.1 42c0 0-0.9-0.1-1.7 0.3 c-0.7 0.4-1.1 1.4-1.1 1.4s-2 5.4-4.7 10c-5.7 9.7-8 10.2-8.9 9.6c-2.2-1.4-1.6-5.6-1.6-8.6c0-9.4 1.4-13.3-2.8-14.3 c-1.4-0.3-2.4-0.6-6-0.6c-4.6 0-8.4 0-10.6 1.1c-1.5 0.7-2.6 2.3-1.9 2.4c0.8 0.1 2.8 0.5 3.8 1.9c1.3 1.8 1.3 5.8 1.3 5.8 s0.8 11-1.8 12.4c-1.7 0.9-4.1-1-9.2-9.7c-2.6-4.5-4.6-9.5-4.6-9.5s-0.4-0.9-1.1-1.4c-0.8-0.6-2-0.8-2-0.8L24.3 42 c0 0-1.8 0.1-2.5 0.8c-0.6 0.7 0 2.2 0 2.2S31.2 67.2 42 78.4C51.9 88.7 63.1 88.1 63.1 88.1L63.1 88.1z"/><path fill="#FFFFFF" d="M226.7 42.5c-2.6 1.1-5.3 1.9-8.2 2.2c2.9-1.8 5.2-4.6 6.3-7.9c-2.8 1.6-5.8 2.8-9 3.5 c-2.6-2.8-6.3-4.5-10.4-4.5c-7.9 0-14.2 6.4-14.2 14.2c0 1.1 0.1 2.2 0.4 3.2c-11.8-0.6-22.3-6.3-29.3-14.9 c-1.2 2.1-1.9 4.5-1.9 7.2c0 4.9 2.5 9.3 6.3 11.8c-2.3-0.1-4.5-0.7-6.4-1.8c0 0.1 0 0.1 0 0.2c0 6.9 4.9 12.7 11.4 14 c-1.2 0.3-2.5 0.5-3.8 0.5c-0.9 0-1.8-0.1-2.7-0.3c1.8 5.7 7.1 9.8 13.3 9.9c-4.9 3.8-11 6.1-17.7 6.1c-1.1 0-2.3-0.1-3.4-0.2 c6.3 4 13.8 6.4 21.8 6.4c26.2 0 40.5-21.7 40.5-40.5c0-0.6 0-1.2 0-1.8C222.4 47.8 224.8 45.3 226.7 42.5z"/><g><path fill-rule="evenodd" clip-rule="evenodd" fill="#FFFFFF" d="M328.7 25h-20.5c-2.7 0-5.6 0.3-8.7 0.9 c-3.1 0.7-6.2 2.3-9.1 4.7c-4.2 4.1-6.4 8.7-6.4 13.7c0 4.2 1.5 7.8 4.5 11c2.9 3.4 7 5.1 12.5 5.2c1 0 2.1-0.1 3.3-0.2 c-0.2 0.5-0.4 1.1-0.6 1.8c-0.3 0.6-0.4 1.4-0.4 2.3c0 1.5 0.3 2.8 1 3.9c0.6 1.1 1.2 2.2 2 3.1c-2.4 0.1-5.4 0.4-9 0.9 c-3.6 0.6-7.1 1.9-10.4 3.8c-3 1.8-5 3.8-6.1 6.2c-1.2 2.3-1.7 4.5-1.7 6.4c0 3.9 1.8 7.3 5.4 10.1c3.5 3 8.9 4.5 16.1 4.6 c8.6-0.1 15.1-2.2 19.7-6.2c4.4-3.8 6.6-8.3 6.6-13.2c-0.1-3.5-0.9-6.3-2.4-8.5c-1.6-2.1-3.5-4.1-5.7-5.9l-3.5-2.9 c-0.5-0.5-1-1.1-1.5-1.8c-0.6-0.7-0.9-1.6-0.9-2.7c0-1.1 0.3-2.1 0.9-2.9c0.5-0.8 1.1-1.5 1.7-2.2c1.1-0.9 2.1-1.9 3-2.8 c0.9-0.9 1.7-1.9 2.4-3c1.6-2.2 2.4-5.1 2.4-8.8c0-2-0.2-3.8-0.7-5.3c-0.5-1.5-1.2-2.8-1.9-3.9c-0.7-1.2-1.5-2-2.3-2.8 c-0.8-0.8-1.5-0.6-2.2-1.6h6.3L328.7 25z M317.5 80.9c1.7 1.9 2.5 4.2 2.5 6.8c0 3.2-1.2 5.8-3.7 7.9c-2.5 2.1-6.2 3.1-11 3.2 c-5.4-0.1-9.6-1.3-12.7-3.6c-3.3-2.3-4.9-5.3-4.9-8.9c0-1.8 0.4-3.4 1.1-4.7c0.7-1.2 1.4-2.3 2.4-3.1c1-0.8 1.9-1.4 2.9-1.9 c0.9-0.4 1.7-0.7 2.2-0.9c2.2-0.7 4.4-1.2 6.5-1.5c2.2-0.2 3.5-0.3 4-0.2c0.9 0 1.6 0 2.3 0.1C312.9 76.8 315.7 79.1 317.5 80.9z M314.2 50.7c-0.2 1.4-0.8 2.7-1.7 4c-1.8 1.8-4 2.8-6.7 2.9c-2.1 0-4-0.7-5.7-2c-1.7-1.3-3-2.9-4.1-4.8c-2.2-4-3.2-7.9-3.2-11.6 c-0.1-2.8 0.7-5.4 2.2-7.6c1.8-2.2 4.1-3.3 6.9-3.4c2.1 0.1 4 0.7 5.6 1.9c1.6 1.2 2.9 2.8 3.8 4.8c2.1 4.1 3.1 8.2 3.1 12.3 C314.4 48.2 314.3 49.3 314.2 50.7z"/><polygon fill-rule="evenodd" clip-rule="evenodd" fill="#FFFFFF" points="361,57.4 361,57 350,57 350,46 343,46 343,57 333,57 333,63.1 333,64 343,64 343,74 350,74 350,64 361,64 361,57.4"/></g><path fill-rule="evenodd" clip-rule="evenodd" fill="#FFA930" d="M446.4 38.7c6.9 0 13.4 3 18.1 7.8v0c0-2.3 1.5-4 3.7-4 l0.5 0c3.3 0 4 3.2 4 4.2l0 35.6c-0.2 2.3 2.4 3.5 3.9 2c5.7-5.9 12.5-30.2-3.5-44.2c-15-13.1-35.1-11-45.8-3.6 c-11.4 7.8-18.7 25.2-11.6 41.5c7.7 17.8 29.8 23.1 42.9 17.8c6.6-2.7 9.7 6.3 2.8 9.2c-10.4 4.4-39.4 4-52.9-19.5 c-9.1-15.8-8.7-43.7 15.6-58.2c18.6-11 43-8 57.8 7.4c15.4 16.1 14.5 46.3-0.5 58c-6.8 5.3-16.9 0.1-16.9-7.6l-0.1-2.5 c-4.7 4.7-11.1 7.5-17.9 7.5c-13.6 0-25.6-12-25.6-25.6C420.9 50.8 432.8 38.7 446.4 38.7L446.4 38.7L446.4 38.7L446.4 38.7z M463.6 63.6c-0.5-10-7.9-15.9-16.8-15.9h-0.3c-10.3 0-16 8.1-16 17.3c0 10.3 6.9 16.8 16 16.8c10.1 0 16.7-7.4 17.2-16.2 L463.6 63.6z"/><path fill="#FFFFFF" d="M582.1 103.5v-36h12.1l1.8-14h-13.9v-9c0-4.1 1.1-6.8 7-6.8l7.4 0V25.1c-1.3-0.2-5.7-0.6-10.8-0.6 c-10.7 0-18 6.5-18 18.5v10.3h-12.1v14h12.1v36H582.1z"/><g><g><path fill="#FFFFFE" d="M704 65.3c11.4 0 20.6-9.2 20.6-20.6c0-11.4-9.2-20.6-20.6-20.6c-11.4 0-20.6 9.2-20.6 20.6 C683.4 56 692.6 65.3 704 65.3z M704 36.2c4.7 0 8.5 3.8 8.5 8.5c0 4.7-3.8 8.5-8.5 8.5c-4.7 0-8.5-3.8-8.5-8.5 C695.5 40 699.3 36.2 704 36.2z"/><path fill="#FFFFFE" d="M712.3 82.1c4.2-1 8.2-2.6 12-5c2.8-1.8 3.7-5.5 1.9-8.3c-1.8-2.8-5.5-3.7-8.3-1.9 c-8.4 5.3-19.3 5.3-27.7 0c-2.8-1.8-6.5-0.9-8.3 1.9c-1.8 2.8-0.9 6.5 1.9 8.3c3.7 2.3 7.8 4 12 5l-11.5 11.5 c-2.4 2.4-2.4 6.2 0 8.5c1.2 1.2 2.7 1.8 4.3 1.8c1.5 0 3.1-0.6 4.3-1.8L704 90.8l11.3 11.3c2.4 2.4 6.2 2.4 8.5 0 c2.4-2.4 2.4-6.2 0-8.5L712.3 82.1z"/></g></g><path fill-rule="evenodd" clip-rule="evenodd" fill="#FFFFFF" d="M832 15c-27.8 0-50.3 22.5-50.3 50.3c0 22.2 14.4 41.1 34.4 47.7 c2.5 0.5 3.4-1.1 3.4-2.4c0-1.2 0-4.4-0.1-8.6c-14 3-16.9-6.7-16.9-6.7c-2.3-5.8-5.6-7.4-5.6-7.4c-4.6-3.1 0.3-3.1 0.3-3.1 c5 0.4 7.7 5.2 7.7 5.2c4.5 7.7 11.8 5.5 14.6 4.2c0.5-3.2 1.8-5.5 3.2-6.7c-11.2-1.3-22.9-5.6-22.9-24.8c0-5.5 2-10 5.2-13.5 c-0.5-1.3-2.2-6.4 0.5-13.3c0 0 4.2-1.4 13.8 5.2c4-1.1 8.3-1.7 12.6-1.7c4.3 0 8.6 0.6 12.6 1.7c9.6-6.5 13.8-5.2 13.8-5.2 c2.7 6.9 1 12 0.5 13.3c3.2 3.5 5.2 8 5.2 13.5c0 19.3-11.8 23.6-23 24.8c1.8 1.6 3.4 4.6 3.4 9.3c0 6.7-0.1 12.1-0.1 13.8 c0 1.3 0.9 2.9 3.5 2.4c20-6.7 34.4-25.5 34.4-47.7C882.3 37.5 859.8 15 832 15z"/><g><g><g><defs><rect x="912" y="16" width="90" height="90.1"/></defs><clipPath><use xlink:href="#SVGID_11_" overflow="visible"/></clipPath><path clip-path="url(#SVGID_1_)" fill="#00B0EA" d="M959.9 21.8c-5.9 0-11.6 1.2-16.7 3.5l-9.3-9.2h0 c-9.8 4.3-17.6 12.2-21.8 22l9.3 9.3l0 0c-2.2 5.1-3.6 10.7-3.6 16.7c0 23.3 18.9 42.2 42.2 42.2c23.3 0 42.2-18.9 42.2-42.2 C1002 40.6 983.1 21.8 959.9 21.8"/></g></g><g><g><defs><rect x="912" y="16" width="90" height="90.1"/></defs><clipPath><use xlink:href="#SVGID_13_" overflow="visible"/></clipPath><path clip-path="url(#SVGID_2_)" fill="#15374C" d="M955.6 81.4c4.2-9.8 12.1-17.7 21.8-22h0l-34.3-34.2l0 0 c-9.8 4.3-17.6 12.2-21.8 22L955.6 81.4z"/></g></g><g><g><defs><rect x="912" y="16" width="90" height="90.1"/></defs><clipPath><use xlink:href="#SVGID_15_" overflow="visible"/></clipPath><path clip-path="url(#SVGID_3_)" fill="#15374C" d="M979.9 71.2c-5.7 2.5-10.2 7.1-12.7 12.8l16 3.3L979.9 71.2z"/></g></g><g><g><defs><rect x="912" y="16" width="90" height="90.1"/></defs><clipPath><use xlink:href="#SVGID_17_" overflow="visible"/></clipPath><path clip-path="url(#SVGID_4_)" fill="#FFFFFF" d="M980.3 73.4l2.9 13.8C983.2 87.1 981.8 80.3 980.3 73.4"/></g></g><g><g><defs><rect x="912" y="16" width="90" height="90.1"/></defs><clipPath><use xlink:href="#SVGID_19_" overflow="visible"/></clipPath><path clip-path="url(#SVGID_5_)" fill="#FFFFFF" d="M979.9 71.2c-1.3-6.1-2.4-11.7-2.4-11.7l0 0c-9.8 4.3-17.6 12.2-21.8 22 l11.6 2.5C969.6 78.2 974.2 73.6 979.9 71.2"/></g></g></g><path fill="#FFFFFF" d="M1074 23.8c-14.3 0-26 11.6-26 26v28.5c0 14.4 11.6 26 26 26h28c14.4 0 26-11.6 26-26V59.8 c0-2.9-2.3-5.2-5.2-5.2h-4.4h-0.1c-2.7 0-5-2.1-5.2-4.8l0-0.1c0-14.4-11.6-26-26-26C1087.1 23.8 1074 23.8 1074 23.8z M1073.4 44.8 h14.7c2.8 0 5 2.2 5 5c0 2.8-2.2 5-5 5h-14.7c-2.8 0-5-2.2-5-5C1068.4 47.1 1070.6 44.8 1073.4 44.8z M1073.4 74.1h29.5 c2.6 0 4.7 2.1 4.7 4.7s-2.1 4.8-4.7 4.8h-29.5c-2.6 0-4.7-2.1-4.7-4.8S1070.7 74.1 1073.4 74.1z"/><g><g><path fill="#FFFFFF" d="M1259.5 46.3c0 0-0.9-6.1-3.5-8.8c-3.4-3.5-7.2-3.6-8.9-3.8c-12.4-0.9-31-0.9-31-0.9h0c0 0-18.6 0-31 0.9 c-1.7 0.2-5.5 0.2-8.9 3.8c-2.7 2.7-3.5 8.8-3.5 8.8s-0.9 7.2-0.9 14.4v6.7c0 7.2 0.9 14.4 0.9 14.4s0.9 6.1 3.5 8.8 c3.4 3.5 7.8 3.4 9.8 3.8c7.1 0.7 30.2 0.9 30.2 0.9s18.6 0 31.1-0.9c1.7-0.2 5.5-0.2 8.9-3.8c2.7-2.7 3.5-8.8 3.5-8.8 s0.9-7.2 0.9-14.4v-6.7C1260.4 53.4 1259.5 46.3 1259.5 46.3z M1206.8 75.5l0-24.9l24 12.5L1206.8 75.5z"/></g></g><g><circle fill="#FFFFFF" cx="1319.1" cy="89" r="9.1"/><g><path fill="#FFFFFF" d="M1310.5 65.9c8.4 0 16.4 3.3 22.3 9.3c6 6 9.3 14 9.3 22.5h13c0-24.7-20-44.8-44.6-44.8V65.9z"/></g><g><path fill="#FFFFFF" d="M1310.5 42.9c30.1 0 54.5 24.6 54.5 54.8h13c0-37.4-30.3-67.8-67.5-67.8V42.9z"/></g></g></g></svg>