<?xml version="1.0" encoding="utf-8"?>
<!-- Generator: Adobe Illustrator 17.1.0, SVG Export Plug-In . SVG Version: 6.00 Build 0)  -->
<!DOCTYPE svg PUBLIC "-//W3C//DTD SVG 1.1//EN" "http://www.w3.org/Graphics/SVG/1.1/DTD/svg11.dtd">
<svg version="1.1" id="Layer_1" xmlns="http://www.w3.org/2000/svg" xmlns:xlink="http://www.w3.org/1999/xlink" x="0px" y="0px"
	 viewBox="0 0 1024 128" enable-background="new 0 0 1024 128" xml:space="preserve">
<rect fill="#1F375D" width="1024" height="128"/>
<rect fill="#D44F57" width="1024" height="64"/>
<rect y="64" fill="#14243D" width="1024" height="8"/>
<rect x="112" y="89" fill="#FFFFFF" width="800" height="39"/>
<path fill="#FFFFFF" d="M912,33c0,4.4-3.6,8-8,8H664c-4.4,0-8-3.6-8-8l0,0c0-4.4,3.6-8,8-8h240C908.4,25,912,28.6,912,33L912,33z"/>
<path fill="#A0363D" d="M240,38c0,3.3-3.6,6-8,6H120c-4.4,0-8-2.7-8-6V26c0-3.3,3.6-6,8-6h112c4.4,0,8,2.7,8,6V38z"/>
<path fill="#A0363D" d="M641,38c0,3.3-3.6,6-8,6H521c-4.4,0-8-2.7-8-6V26c0-3.3,3.6-6,8-6h112c4.4,0,8,2.7,8,6V38z"/>
<path fill="#A0363D" d="M374,38c0,3.3-3.6,6-8,6H254c-4.4,0-8-2.7-8-6V26c0-3.3,3.6-6,8-6h112c4.4,0,8,2.7,8,6V38z"/>
<path fill="#A0363D" d="M507,38c0,3.3-3.6,6-8,6H387c-4.4,0-8-2.7-8-6V26c0-3.3,3.6-6,8-6h112c4.4,0,8,2.7,8,6V38z"/>
</svg>
