<?xml version="1.0" encoding="utf-8"?>
<!-- Generator: Adobe Illustrator 17.1.0, SVG Export Plug-In . SVG Version: 6.00 Build 0)  -->
<!DOCTYPE svg PUBLIC "-//W3C//DTD SVG 1.1//EN" "http://www.w3.org/Graphics/SVG/1.1/DTD/svg11.dtd">
<svg version="1.1" id="Layer_1" xmlns="http://www.w3.org/2000/svg" xmlns:xlink="http://www.w3.org/1999/xlink" x="0px" y="0px"
	 viewBox="0 0 512 512" enable-background="new 0 0 512 512" xml:space="preserve">
<line fill="none" stroke="#000000" stroke-width="5" stroke-linecap="round" stroke-linejoin="round" stroke-miterlimit="10" x1="130.9" y1="120.5" x2="135.2" y2="133.5"/>
<path fill="none" stroke="#000000" stroke-width="5" stroke-linecap="round" stroke-linejoin="round" stroke-miterlimit="10" d="
	M150.5,120.5c0,0,2.2,5.1,10.9,6.5s18.9-3.3,18.9-3.3"/>
<path fill="none" stroke="#000000" stroke-width="5" stroke-linecap="round" stroke-linejoin="round" stroke-miterlimit="10" d="
	M93.8,154.6c0,0,3.6-3.6,8-5.8c4.4-2.2,12.4-5.8,12.4-5.8"/>
<path fill="none" stroke="#000000" stroke-width="5" stroke-linecap="round" stroke-linejoin="round" stroke-miterlimit="10" d="
	M344.7,219.9c0,0,11.6-40.5,8.7-76.9s-23.3-93.1-51.6-104.7s-94.5-20.4-113.5-11.6s-37.8,19.6-57.5,35.6
	c-12.7,10.3-22.5,34.9-26.9,50.2s-2.2,36.4-2.2,36.4"/>
<path fill="none" stroke="#000000" stroke-width="5" stroke-linecap="round" stroke-linejoin="round" stroke-miterlimit="10" d="
	M344.7,219.9c0,0,29.8,42.4,39.3,75.1s31.3,192,31.3,192"/>
<path fill="none" stroke="#000000" stroke-width="5" stroke-linecap="round" stroke-linejoin="round" stroke-miterlimit="10" d="
	M304,246.3c-0.7,10.9-9.5,26.9-9.5,44.4s2.9,32.7,9.5,47.3c6.5,14.5,23.3,41.5,24,53.8c0.7,12.4,0,29.8,0,29.8s21.1-3.6,25.8-20.4
	c4.7-16.7-6.9-53.8-9.1-70.5c-2.2-16.7-2.9-49.5-2.9-49.5"/>
<path fill="none" stroke="#000000" stroke-width="5" stroke-linecap="round" stroke-linejoin="round" stroke-miterlimit="10" d="
	M264.7,291.4c0,0,0.7,21.1,4.4,42.5c3.6,21.5,5.8,70.2,7.3,87.6s11.6,58.2,9.5,70.5"/>
<path fill="none" stroke="#000000" stroke-width="5" stroke-linecap="round" stroke-linejoin="round" stroke-miterlimit="10" d="
	M244.3,265.9c0,0-3.6,18.2-5.1,40.7c-1.5,22.5,7.3,50.2,8.7,66.9c1.5,16.7,2.9,48,2.9,48s4-0.6,13.8-13.8c9.8-13.2,9-26.1,9-26.1"/>
<path fill="none" stroke="#000000" stroke-width="5" stroke-linecap="round" stroke-linejoin="round" stroke-miterlimit="10" d="
	M286.1,246.3c0,0-17.7,19.6-29.7,19.6c-12.1,0-28.9-3.6-28.9-3.6"/>
<path fill="none" stroke="#000000" stroke-width="5" stroke-linecap="round" stroke-linejoin="round" stroke-miterlimit="10" d="
	M130.9,200.5c2.2-9.5,20.4-18.2,34.5-19.6c14.2-1.5,32.4,0.7,42.5,9.8c10.2,9.1,33.3,49.1,19.5,55.6c-13.7,6.5-21,1.5-37,0
	s-25.1,13.1-25.1,13.1s-15.6-16.7-24.4-29.1C132.3,217.9,130.9,200.5,130.9,200.5z"/>
<path fill="none" stroke="#000000" stroke-width="5" stroke-linecap="round" stroke-linejoin="round" stroke-miterlimit="10" d="
	M231.8,204.8c0,0-10-18.3-20.2-24.4c-10.2-6.1-21.1-5.4-21.1-5.4"/>
<path fill="none" stroke="#000000" stroke-width="5" stroke-linecap="round" stroke-linejoin="round" stroke-miterlimit="10" d="
	M139.9,189.9c0,0,3.4,10.6,10.6,10.6s31.3-0.4,40-5.3c8.7-4.9,10.8-9,10.8-9"/>
<path fill="none" stroke="#000000" stroke-width="5" stroke-linecap="round" stroke-linejoin="round" stroke-miterlimit="10" d="
	M160.7,138.6c1.5-2.2,12.2-2.2,20.6,0c8.5,2.2,13.6,4.4,13.6,4.4"/>
<path fill="none" stroke="#000000" stroke-width="5" stroke-linecap="round" stroke-linejoin="round" stroke-miterlimit="10" d="
	M165.4,148.8c0,0,3.6-2.9,12.4-5.8c8.7-2.9,12.7,0,12.7,0"/>
<path fill="none" stroke="#000000" stroke-width="5" stroke-linecap="round" stroke-linejoin="round" stroke-miterlimit="10" d="
	M165.4,159c0,0,5.1,5.1,12.5,6.5c7.5,1.5,16.9-3.3,16.9-3.3"/>
<path fill="none" stroke="#000000" stroke-width="5" stroke-linecap="round" stroke-linejoin="round" stroke-miterlimit="10" d="
	M111.2,154.6c-1.7,0.4-1.6,4.4-7.3,7.8c-5.6,3.4-6.5,0.2-6.5,0.2"/>
<path fill="none" stroke="#000000" stroke-width="5" stroke-linecap="round" stroke-linejoin="round" stroke-miterlimit="10" d="
	M101.2,165.8c-0.2,7.3,6.4,20.3,6.4,20.3s1.5,6.3,3.6,18.7c2.2,12.4,54.2,54.5,54.2,54.5s12,6.5,25.1,6.5c13.1,0,26.2-3.6,26.2-3.6"
	/>
<path fill="none" stroke="#000000" stroke-width="5" stroke-linecap="round" stroke-linejoin="round" stroke-miterlimit="10" d="
	M121.4,168.5c0,0-6.5,2.1-7.3,6.5c-0.7,4.4-0.7,4.4-0.7,4.4"/>
<path fill="none" stroke="#000000" stroke-width="5" stroke-linecap="round" stroke-linejoin="round" stroke-miterlimit="10" d="
	M243.6,241.2c0,0-12.4,22.5-26.9,21.1c-14.5-1.5-21.8-6.2-21.8-6.2"/>
<path fill="none" stroke="#000000" stroke-width="5" stroke-linecap="round" stroke-linejoin="round" stroke-miterlimit="10" d="
	M211.1,217.2c0,0-9.7,7.3-16.3,13.8c-6.5,6.5-8.8,15.3-8.8,15.3"/>
<path fill="none" stroke="#000000" stroke-width="5" stroke-linecap="round" stroke-linejoin="round" stroke-miterlimit="10" d="
	M231.5,234.5c0,0-6.1-1.6-14.8,0c-8.7,1.6-15.4,11.8-15.4,11.8"/>
<path fill="none" stroke="#000000" stroke-width="5" stroke-linecap="round" stroke-linejoin="round" stroke-miterlimit="10" d="
	M194.9,231c0,0-2.3,0.3-8.8,1.1s-10.2,7.4-10.2,7.4s-0.6,0-5.3,0c-4.7,0-16.5,7.7-16.5,7.7"/>
<line fill="none" stroke="#000000" stroke-width="5" stroke-linecap="round" stroke-linejoin="round" stroke-miterlimit="10" x1="174.5" y1="251.8" x2="175.9" y2="237.3"/>
</svg>
